<svg width="109" height="109" viewBox="0 0 109 109" fill="none" xmlns="http://www.w3.org/2000/svg">
<path fill-rule="evenodd" clip-rule="evenodd" d="M39.8536 0.0102813C42.3634 -0.678133 50.6594 33.41 62.7442 40.4087C74.8288 47.4065 108.253 37.2691 108.835 39.2251C109.411 41.1831 75.8165 49.9348 68.6388 62.4048L68.4727 62.7007C61.6127 75.3947 71.231 108.256 69.0128 108.835C66.7939 109.41 58.9848 76.0982 46.7022 68.5347L46.4122 68.3609C33.9609 61.1501 0.69076 71.2074 0.00985601 68.3843C-0.66004 65.5829 33.0176 58.5771 40.3487 46.647L40.5177 46.3638C47.4841 34.2605 37.3445 0.701019 39.8536 0.0102813ZM51.6241 43.3853C51.0592 46.0663 50.1714 48.723 48.7892 51.1245C47.4477 53.455 45.668 55.4869 43.7091 57.2564C46.3017 57.851 48.8622 58.7512 51.1935 60.1011C53.5705 61.4777 55.6625 63.294 57.4962 65.2935C58.0913 62.642 58.997 60.0221 60.3663 57.6431C61.6974 55.3305 63.4448 53.2733 65.3731 51.4517C62.8035 50.88 60.2654 50.001 57.961 48.6665C55.5649 47.2788 53.4618 45.4242 51.6241 43.3853Z" fill="black"/>
</svg>
